<?xml version="1.0" encoding="UTF-8" standalone="no"?>
<!DOCTYPE svg PUBLIC "-//W3C//DTD SVG 1.1//EN" "http://www.w3.org/Graphics/SVG/1.1/DTD/svg11.dtd">
<svg width="100%" height="100%" fill="white" viewBox="0 0 1000 1000" version="1.1" xmlns="http://www.w3.org/2000/svg" xmlns:xlink="http://www.w3.org/1999/xlink" xml:space="preserve" xmlns:serif="http://www.serif.com/" style="fill-rule:evenodd;clip-rule:evenodd;stroke-linejoin:round;stroke-miterlimit:2;">
    <g transform="matrix(1,0,0,1,0,-99.289)">
        <g id="Logo">
            <g id="UwU" transform="matrix(8.28915,0,0,8.28915,-2749.85,-1657.72)">
                <g>
                    <path d="M331.74,240.226C331.74,238.565 332.321,237.129 333.482,235.918C334.643,234.707 336.072,234.101 337.77,234.101C339.398,234.101 340.802,234.689 341.98,235.865C343.158,237.041 343.747,238.459 343.747,240.119L343.747,255.528C343.747,257.292 344.198,258.745 345.099,259.886C346,261.027 347.282,261.736 348.945,262.013C349.222,262.082 349.655,262.117 350.244,262.117C350.799,262.117 351.215,262.082 351.492,262.013C353.155,261.736 354.437,261.036 355.338,259.912C356.239,258.788 356.69,257.327 356.69,255.528L356.69,240.119C356.69,238.459 357.279,237.041 358.457,235.865C359.635,234.689 361.038,234.101 362.667,234.101C364.365,234.101 365.794,234.698 366.955,235.892C368.116,237.086 368.696,238.531 368.696,240.226L368.696,255.176C368.696,259.813 367.397,263.602 364.798,266.543C362.199,269.484 358.422,271.336 353.467,272.097C353.19,272.166 352.748,272.227 352.142,272.279C351.535,272.331 350.886,272.357 350.192,272.357C349.673,272.357 349.136,272.339 348.581,272.305C348.027,272.27 347.472,272.201 346.918,272.097C341.963,271.336 338.194,269.493 335.613,266.569C333.031,263.645 331.74,259.847 331.74,255.176L331.74,240.226Z" style="fill-rule:nonzero;"/>
                    <g transform="matrix(0.191917,0,0,0.191917,296.102,157.271)">
                        <path d="M423.793,570.555L386.115,493.936C383.587,489.041 382.323,483.877 382.323,478.443C382.323,466.12 387.92,457.241 399.115,451.804C401.642,450.535 403.674,449.674 405.208,449.221C406.743,448.768 408.774,448.542 411.302,448.542C417.983,448.542 424.031,450.257 429.448,453.688C434.865,457.118 438.656,461.722 440.823,467.5L456.531,511.917L469.26,475.083C475.399,457.389 485.33,448.542 499.052,448.542C502.483,448.542 506.319,449.083 510.563,450.167C514.806,451.25 518.552,453.733 521.802,457.615C525.052,461.497 528.031,467.319 530.74,475.083L543.469,511.917L559.177,467.5C561.163,461.903 564.91,457.344 570.417,453.823C575.924,450.302 582.017,448.542 588.698,448.542C590.865,448.542 592.851,448.813 594.656,449.356C596.462,449.899 598.538,450.715 600.885,451.804C605.941,454.341 609.958,458.01 612.938,462.811C615.917,467.613 617.406,472.914 617.406,478.714C617.406,483.967 616.233,489.041 613.885,493.936L575.946,571.086L575.946,565.529C575.946,550.581 563.81,538.445 548.862,538.445C538.048,538.445 528.706,544.797 524.366,553.97C520.026,544.797 510.684,538.445 499.869,538.445C489.055,538.445 479.713,544.797 475.373,553.97C471.033,544.797 461.691,538.445 450.877,538.445C435.929,538.445 423.793,550.581 423.793,565.529L423.793,570.555Z"/>
                    </g>
                    <path d="M415.424,240.226C415.424,238.565 416.005,237.129 417.165,235.918C418.326,234.707 419.756,234.101 421.454,234.101C423.082,234.101 424.486,234.689 425.664,235.865C426.842,237.041 427.431,238.459 427.431,240.119L427.431,255.528C427.431,257.292 427.881,258.745 428.782,259.886C429.683,261.027 430.965,261.736 432.629,262.013C432.906,262.082 433.339,262.117 433.928,262.117C434.483,262.117 434.898,262.082 435.176,262.013C436.839,261.736 438.121,261.036 439.022,259.912C439.923,258.788 440.373,257.327 440.373,255.528L440.373,240.119C440.373,238.459 440.962,237.041 442.141,235.865C443.319,234.689 444.722,234.101 446.351,234.101C448.049,234.101 449.478,234.698 450.639,235.892C451.8,237.086 452.38,238.531 452.38,240.226L452.38,255.176C452.38,259.813 451.081,263.602 448.482,266.543C445.883,269.484 442.106,271.336 437.151,272.097C436.873,272.166 436.432,272.227 435.825,272.279C435.219,272.331 434.569,272.357 433.876,272.357C433.356,272.357 432.819,272.339 432.265,272.305C431.71,272.27 431.156,272.201 430.602,272.097C425.646,271.336 421.878,269.493 419.296,266.569C416.715,263.645 415.424,259.847 415.424,255.176L415.424,240.226Z" style="fill-rule:nonzero;"/>
                </g>
            </g>
            <g id="Coffee" transform="matrix(19.4848,0,0,19.4848,-9426.66,-10853.7)">
                <g>
                    <g transform="matrix(0.0513221,0,0,0.0513221,483.796,562.128)">
                        <path d="M662.339,745.233C658.852,799.398 613.228,842.871 558.247,842.871L441.338,842.871C384.117,842.871 337.032,795.785 337.032,738.565L337.032,563.202C337.032,548.64 348.837,536.835 363.399,536.835L655.671,536.835C712.891,536.835 759.977,583.92 759.977,641.141C759.977,696.123 716.504,741.747 662.339,745.233ZM662.553,590.033L662.553,692.249C687.641,688.842 707.243,667.101 707.243,641.141C707.243,615.181 687.641,593.44 662.553,590.033ZM609.819,719.08C609.819,678.69 609.819,589.569 609.819,589.569L389.766,589.569L389.766,738.565C389.766,766.856 413.046,790.137 441.338,790.137L558.247,790.137C586.538,790.137 609.819,766.856 609.819,738.565C609.819,738.565 609.819,730.914 609.819,719.08Z"/>
                    </g>
                    <g transform="matrix(1,0,0,1,499.446,583.033)">
                        <path d="M12.647,2C12.647,1.253 13.253,0.647 14,0.647C14.747,0.647 15.353,1.253 15.353,2L15.353,4C15.353,4.747 14.747,5.353 14,5.353C13.253,5.353 12.647,4.747 12.647,4L12.647,2Z"/>
                    </g>
                    <g transform="matrix(1,0,0,1,499.446,583.033)">
                        <path d="M8.647,2C8.647,1.253 9.253,0.647 10,0.647C10.747,0.647 11.353,1.253 11.353,2L11.353,4C11.353,4.747 10.747,5.353 10,5.353C9.253,5.353 8.647,4.747 8.647,4L8.647,2Z"/>
                    </g>
                    <g transform="matrix(1,0,0,1,499.446,583.033)">
                        <path d="M4.647,2C4.647,1.253 5.253,0.647 6,0.647C6.747,0.647 7.353,1.253 7.353,2L7.353,4C7.353,4.747 6.747,5.353 6,5.353C5.253,5.353 4.647,4.747 4.647,4L4.647,2Z"/>
                    </g>
                </g>
            </g>
        </g>
    </g>
</svg>
